<mxfile host="app.diagrams.net" modified="2022-02-27T16:28:49.085Z" agent="5.0 (Windows NT 10.0; Win64; x64) AppleWebKit/537.36 (KHTML, like Gecko) Chrome/98.0.4758.102 Safari/537.36" etag="H6X2ETT08N_3sIBgwDPd" version="16.6.4" type="github">
  <diagram id="NjQuQW_21Sl2C1yloX9y" name="第 1 页">
    <mxGraphModel dx="1422" dy="762" grid="1" gridSize="10" guides="1" tooltips="1" connect="1" arrows="1" fold="1" page="1" pageScale="1" pageWidth="690" pageHeight="980" math="0" shadow="0">
      <root>
        <mxCell id="0" />
        <mxCell id="1" parent="0" />
        <mxCell id="LmBcxwdYTmZvG7Dvwdxf-3" value="task" style="rounded=1;whiteSpace=wrap;html=1;" vertex="1" parent="1">
          <mxGeometry x="272" y="246" width="120" height="30" as="geometry" />
        </mxCell>
        <mxCell id="LmBcxwdYTmZvG7Dvwdxf-4" value="" style="rounded=1;whiteSpace=wrap;html=1;" vertex="1" parent="1">
          <mxGeometry x="272" y="301" width="120" height="30" as="geometry" />
        </mxCell>
        <mxCell id="LmBcxwdYTmZvG7Dvwdxf-5" value="" style="rounded=1;whiteSpace=wrap;html=1;" vertex="1" parent="1">
          <mxGeometry x="272" y="356" width="120" height="30" as="geometry" />
        </mxCell>
        <mxCell id="LmBcxwdYTmZvG7Dvwdxf-6" value="source" style="text;html=1;strokeColor=none;fillColor=none;align=center;verticalAlign=middle;whiteSpace=wrap;rounded=0;" vertex="1" parent="1">
          <mxGeometry x="302" y="196" width="60" height="30" as="geometry" />
        </mxCell>
        <mxCell id="LmBcxwdYTmZvG7Dvwdxf-7" value="task" style="rounded=1;whiteSpace=wrap;html=1;" vertex="1" parent="1">
          <mxGeometry x="452" y="246" width="120" height="30" as="geometry" />
        </mxCell>
        <mxCell id="LmBcxwdYTmZvG7Dvwdxf-8" value="" style="rounded=1;whiteSpace=wrap;html=1;" vertex="1" parent="1">
          <mxGeometry x="452" y="301" width="120" height="30" as="geometry" />
        </mxCell>
        <mxCell id="LmBcxwdYTmZvG7Dvwdxf-9" value="" style="rounded=1;whiteSpace=wrap;html=1;" vertex="1" parent="1">
          <mxGeometry x="452" y="356" width="120" height="30" as="geometry" />
        </mxCell>
        <mxCell id="LmBcxwdYTmZvG7Dvwdxf-10" value="operation" style="text;html=1;strokeColor=none;fillColor=none;align=center;verticalAlign=middle;whiteSpace=wrap;rounded=0;" vertex="1" parent="1">
          <mxGeometry x="482" y="196" width="60" height="30" as="geometry" />
        </mxCell>
        <mxCell id="LmBcxwdYTmZvG7Dvwdxf-11" value="task" style="rounded=1;whiteSpace=wrap;html=1;" vertex="1" parent="1">
          <mxGeometry x="632" y="246" width="120" height="30" as="geometry" />
        </mxCell>
        <mxCell id="LmBcxwdYTmZvG7Dvwdxf-12" value="" style="rounded=1;whiteSpace=wrap;html=1;" vertex="1" parent="1">
          <mxGeometry x="632" y="301" width="120" height="30" as="geometry" />
        </mxCell>
        <mxCell id="LmBcxwdYTmZvG7Dvwdxf-13" value="" style="rounded=1;whiteSpace=wrap;html=1;" vertex="1" parent="1">
          <mxGeometry x="632" y="356" width="120" height="30" as="geometry" />
        </mxCell>
        <mxCell id="LmBcxwdYTmZvG7Dvwdxf-14" value="sink" style="text;html=1;strokeColor=none;fillColor=none;align=center;verticalAlign=middle;whiteSpace=wrap;rounded=0;" vertex="1" parent="1">
          <mxGeometry x="662" y="196" width="60" height="30" as="geometry" />
        </mxCell>
        <mxCell id="LmBcxwdYTmZvG7Dvwdxf-15" value="mysql" style="shape=cylinder3;whiteSpace=wrap;html=1;boundedLbl=1;backgroundOutline=1;size=15;" vertex="1" parent="1">
          <mxGeometry x="832" y="276" width="40" height="60" as="geometry" />
        </mxCell>
        <mxCell id="LmBcxwdYTmZvG7Dvwdxf-28" value="" style="html=1;shadow=0;dashed=0;shape=mxgraph.bootstrap.rrect;rSize=5;strokeColor=#DEE2E6;html=1;whiteSpace=wrap;fillColor=#ffffff;fontColor=#0085FC;" vertex="1" parent="1">
          <mxGeometry x="10" y="300" width="150" height="30" as="geometry" />
        </mxCell>
        <mxCell id="LmBcxwdYTmZvG7Dvwdxf-29" value="5" style="strokeColor=inherit;fillColor=inherit;gradientColor=inherit;fontColor=inherit;html=1;shadow=0;dashed=0;shape=mxgraph.bootstrap.leftButton;rSize=5;perimeter=none;whiteSpace=wrap;resizeHeight=1;fontSize=14;" vertex="1" parent="LmBcxwdYTmZvG7Dvwdxf-28">
          <mxGeometry width="30" height="30" relative="1" as="geometry" />
        </mxCell>
        <mxCell id="LmBcxwdYTmZvG7Dvwdxf-30" value="4" style="strokeColor=inherit;fillColor=inherit;gradientColor=inherit;fontColor=inherit;html=1;shadow=0;dashed=0;perimeter=none;whiteSpace=wrap;resizeHeight=1;fontSize=14;" vertex="1" parent="LmBcxwdYTmZvG7Dvwdxf-28">
          <mxGeometry width="30" height="30" relative="1" as="geometry">
            <mxPoint x="30" as="offset" />
          </mxGeometry>
        </mxCell>
        <mxCell id="LmBcxwdYTmZvG7Dvwdxf-31" value="3" style="strokeColor=inherit;fillColor=inherit;gradientColor=inherit;fontColor=inherit;html=1;shadow=0;dashed=0;perimeter=none;whiteSpace=wrap;resizeHeight=1;fontSize=14;" vertex="1" parent="LmBcxwdYTmZvG7Dvwdxf-28">
          <mxGeometry width="30" height="30" relative="1" as="geometry">
            <mxPoint x="60" as="offset" />
          </mxGeometry>
        </mxCell>
        <mxCell id="LmBcxwdYTmZvG7Dvwdxf-32" value="2" style="strokeColor=inherit;fillColor=inherit;gradientColor=inherit;fontColor=inherit;html=1;shadow=0;dashed=0;perimeter=none;whiteSpace=wrap;resizeHeight=1;fontSize=14;" vertex="1" parent="LmBcxwdYTmZvG7Dvwdxf-28">
          <mxGeometry width="30" height="30" relative="1" as="geometry">
            <mxPoint x="90" as="offset" />
          </mxGeometry>
        </mxCell>
        <mxCell id="LmBcxwdYTmZvG7Dvwdxf-33" value="1" style="strokeColor=inherit;fillColor=inherit;gradientColor=inherit;fontColor=inherit;html=1;shadow=0;dashed=0;shape=mxgraph.bootstrap.rightButton;rSize=5;perimeter=none;whiteSpace=wrap;resizeHeight=1;fontSize=14;" vertex="1" parent="LmBcxwdYTmZvG7Dvwdxf-28">
          <mxGeometry x="1" width="30" height="30" relative="1" as="geometry">
            <mxPoint x="-30" as="offset" />
          </mxGeometry>
        </mxCell>
        <mxCell id="LmBcxwdYTmZvG7Dvwdxf-34" value="kafka" style="text;html=1;strokeColor=none;fillColor=none;align=center;verticalAlign=middle;whiteSpace=wrap;rounded=0;" vertex="1" parent="1">
          <mxGeometry x="50" y="200" width="60" height="30" as="geometry" />
        </mxCell>
      </root>
    </mxGraphModel>
  </diagram>
</mxfile>
